<?xml version="1.0" encoding="UTF-8" standalone="no"?>
<!-- Created with Inkscape (http://www.inkscape.org/) -->

<svg
   xmlns:dc="http://purl.org/dc/elements/1.1/"
   xmlns:cc="http://creativecommons.org/ns#"
   xmlns:rdf="http://www.w3.org/1999/02/22-rdf-syntax-ns#"
   xmlns:svg="http://www.w3.org/2000/svg"
   xmlns="http://www.w3.org/2000/svg"
   xmlns:sodipodi="http://sodipodi.sourceforge.net/DTD/sodipodi-0.dtd"
   xmlns:inkscape="http://www.inkscape.org/namespaces/inkscape"
   width="112.43716mm"
   height="10.805583mm"
   viewBox="0 0 112.43716 10.805583"
   version="1.1"
   id="svg1852"
   inkscape:version="0.92.4 (5da689c313, 2019-01-14)"
   sodipodi:docname="email.svg">
  <defs
     id="defs1846" />
  <sodipodi:namedview
     id="base"
     pagecolor="#ffffff"
     bordercolor="#666666"
     borderopacity="1.0"
     inkscape:pageopacity="0.0"
     inkscape:pageshadow="2"
     inkscape:zoom="3.959798"
     inkscape:cx="148.93279"
     inkscape:cy="40.60841"
     inkscape:document-units="mm"
     inkscape:current-layer="layer1"
     showgrid="false"
     inkscape:window-width="1920"
     inkscape:window-height="1000"
     inkscape:window-x="-11"
     inkscape:window-y="-11"
     inkscape:window-maximized="1" />
  <metadata
     id="metadata1849">
    <rdf:RDF>
      <cc:Work
         rdf:about="">
        <dc:format>image/svg+xml</dc:format>
        <dc:type
           rdf:resource="http://purl.org/dc/dcmitype/StillImage" />
        <dc:title />
      </cc:Work>
    </rdf:RDF>
  </metadata>
  <g
     inkscape:label="Layer 1"
     inkscape:groupmode="layer"
     id="layer1"
     transform="translate(-47.702108,-121.88061)">
    <g
       aria-label="dylon@dtjanaka.com"
       style="font-style:normal;font-variant:normal;font-weight:normal;font-stretch:normal;font-size:10.58333302px;line-height:1.25;font-family:Poppins;-inkscape-font-specification:Poppins;letter-spacing:0px;word-spacing:0px;fill:#000000;fill-opacity:1;stroke:none;stroke-width:0.26458332"
       id="text2399">
      <path
         d="m 47.702108,127.01352 q 0,-0.889 0.359833,-1.55575 0.359834,-0.67733 0.98425,-1.04775 0.635,-0.37041 1.418167,-0.37041 0.677333,0 1.259416,0.3175 0.582084,0.30691 0.889,0.81491 v -3.06916 h 0.973667 v 7.83166 h -0.973667 v -1.09008 q -0.28575,0.51858 -0.846666,0.85725 -0.560917,0.32808 -1.312334,0.32808 -0.772583,0 -1.407583,-0.381 -0.624416,-0.381 -0.98425,-1.06891 -0.359833,-0.68792 -0.359833,-1.56634 z m 4.910666,0.0106 q 0,-0.65617 -0.264583,-1.143 -0.264583,-0.48684 -0.719667,-0.74084 -0.4445,-0.26458 -0.98425,-0.26458 -0.53975,0 -0.98425,0.254 -0.4445,0.254 -0.709083,0.74083 -0.264583,0.48684 -0.264583,1.143 0,0.66675 0.264583,1.16417 0.264583,0.48683 0.709083,0.75142 0.4445,0.254 0.98425,0.254 0.53975,0 0.98425,-0.254 0.455084,-0.26459 0.719667,-0.75142 0.264583,-0.49742 0.264583,-1.15358 z"
         style="fill:#f8f8ff;fill-opacity:1;stroke-width:0.26458332"
         id="path3025" />
      <path
         d="m 60.209292,124.13486 -3.492499,8.53016 h -0.994834 l 1.143,-2.794 -2.338916,-5.73616 h 1.068916 l 1.820334,4.699 1.799166,-4.699 z"
         style="fill:#f8f8ff;fill-opacity:1;stroke-width:0.26458332"
         id="path3027" />
      <path
         d="m 62.130167,122.10286 v 7.83166 h -0.963083 v -7.83166 z"
         style="fill:#f8f8ff;fill-opacity:1;stroke-width:0.26458332"
         id="path3029" />
      <path
         d="m 66.300993,130.02977 q -0.814917,0 -1.481667,-0.37041 -0.656167,-0.37042 -1.037167,-1.04775 -0.370416,-0.68792 -0.370416,-1.5875 0,-0.889 0.381,-1.56634 0.391583,-0.68791 1.058333,-1.04775 0.66675,-0.37041 1.49225,-0.37041 0.8255,0 1.49225,0.37041 0.66675,0.35984 1.04775,1.03717 0.391583,0.67733 0.391583,1.57692 0,0.89958 -0.402167,1.5875 -0.391583,0.67733 -1.068916,1.04775 -0.677333,0.37041 -1.502833,0.37041 z m 0,-0.84666 q 0.518583,0 0.973666,-0.24342 0.455084,-0.24342 0.73025,-0.73025 0.28575,-0.48683 0.28575,-1.18533 0,-0.6985 -0.275167,-1.18534 -0.275166,-0.48683 -0.719666,-0.71966 -0.4445,-0.24342 -0.963083,-0.24342 -0.529167,0 -0.973667,0.24342 -0.433917,0.23283 -0.6985,0.71966 -0.264583,0.48684 -0.264583,1.18534 0,0.70908 0.254,1.19591 0.264583,0.48684 0.6985,0.73025 0.433916,0.23284 0.9525,0.23284 z"
         style="fill:#f8f8ff;fill-opacity:1;stroke-width:0.26458332"
         id="path3031" />
      <path
         d="m 73.377273,124.02902 q 1.058333,0 1.7145,0.64559 0.656167,0.635 0.656167,1.8415 v 3.41841 h -0.9525 v -3.28083 q 0,-0.86783 -0.433917,-1.32292 -0.433917,-0.46566 -1.185333,-0.46566 -0.762,0 -1.217083,0.47625 -0.4445,0.47625 -0.4445,1.38641 v 3.20675 h -0.963084 v -5.79966 h 0.963084 v 0.8255 q 0.28575,-0.4445 0.772583,-0.68792 0.497417,-0.24342 1.090083,-0.24342 z"
         style="fill:#f8f8ff;fill-opacity:1;stroke-width:0.26458332"
         id="path3033" />
      <path
         d="m 82.623139,123.15061 q 1.17475,0 2.042583,0.4445 0.867834,0.4445 1.3335,1.24883 0.465667,0.79375 0.465667,1.8415 0,0.83608 -0.275167,1.60867 -0.275166,0.762 -0.804333,1.23825 -0.518583,0.47625 -1.217083,0.47625 -0.529167,0 -0.814917,-0.26459 -0.28575,-0.26458 -0.328083,-0.71966 -0.328084,0.45508 -0.836084,0.71966 -0.497416,0.26459 -1.058333,0.26459 -0.804333,0 -1.27,-0.48684 -0.455083,-0.49741 -0.455083,-1.3335 0,-0.79375 0.328083,-1.48166 0.338667,-0.68792 0.931333,-1.10067 0.592667,-0.42333 1.344084,-0.42333 1.005416,0 1.354666,0.762 l 0.116417,-0.65617 h 0.836083 l -0.529166,3.05858 q -0.03175,0.20109 -0.03175,0.37042 0,0.635 0.560916,0.635 0.423334,0 0.73025,-0.40217 0.3175,-0.40216 0.47625,-1.00541 0.15875,-0.61384 0.15875,-1.2065 0,-1.38642 -0.836083,-2.14842 -0.8255,-0.762 -2.338917,-0.762 -1.259416,0 -2.275416,0.61383 -1.005417,0.60325 -1.576917,1.66159 -0.5715,1.05833 -0.5715,2.33891 -0.01058,1.397 0.836083,2.14842 0.846667,0.762 2.3495,0.762 0.994834,0 1.756834,-0.35983 l 0.127,0.65616 q -0.941917,0.39159 -2.074334,0.39159 -1.132416,0 -2.00025,-0.43392 -0.85725,-0.42333 -1.3335,-1.22767 -0.465666,-0.79375 -0.465666,-1.85208 0,-1.49225 0.687916,-2.71992 0.687917,-1.23825 1.905,-1.94733 1.227667,-0.70908 2.751667,-0.70908 z m -1.2065,6.10658 q 0.47625,0 0.878417,-0.27517 0.402166,-0.28575 0.635,-0.762 0.232833,-0.48683 0.232833,-1.05833 0,-0.55033 -0.306917,-0.889 -0.296333,-0.34925 -0.846666,-0.34925 -0.508,0 -0.899584,0.30692 -0.381,0.29633 -0.592666,0.79375 -0.211667,0.48683 -0.211667,1.016 0,0.56091 0.28575,0.889 0.28575,0.32808 0.8255,0.32808 z"
         style="fill:#f8f8ff;fill-opacity:1;stroke-width:0.26458332"
         id="path3035" />
      <path
         d="m 87.699666,127.01352 q 0,-0.889 0.359834,-1.55575 0.359833,-0.67733 0.98425,-1.04775 0.635,-0.37041 1.418166,-0.37041 0.677334,0 1.259417,0.3175 0.582083,0.30691 0.889,0.81491 v -3.06916 H 93.584 v 7.83166 h -0.973667 v -1.09008 q -0.28575,0.51858 -0.846667,0.85725 -0.560916,0.32808 -1.312333,0.32808 -0.772583,0 -1.407583,-0.381 -0.624417,-0.381 -0.98425,-1.06891 -0.359834,-0.68792 -0.359834,-1.56634 z m 4.910667,0.0106 q 0,-0.65617 -0.264583,-1.143 -0.264584,-0.48684 -0.719667,-0.74084 -0.4445,-0.26458 -0.98425,-0.26458 -0.53975,0 -0.98425,0.254 -0.4445,0.254 -0.709083,0.74083 -0.264584,0.48684 -0.264584,1.143 0,0.66675 0.264584,1.16417 0.264583,0.48683 0.709083,0.75142 0.4445,0.254 0.98425,0.254 0.53975,0 0.98425,-0.254 0.455083,-0.26459 0.719667,-0.75142 0.264583,-0.49742 0.264583,-1.15358 z"
         style="fill:#f8f8ff;fill-opacity:1;stroke-width:0.26458332"
         id="path3037" />
      <path
         d="m 96.386265,124.92861 v 3.41841 q 0,0.42334 0.179917,0.60325 0.179917,0.16934 0.624417,0.16934 h 0.709083 v 0.81491 h -0.867833 q -0.804334,0 -1.2065,-0.37041 -0.402167,-0.37042 -0.402167,-1.21709 v -3.41841 h -0.751417 v -0.79375 h 0.751417 v -1.4605 h 0.963083 v 1.4605 h 1.513417 v 0.79375 z"
         style="fill:#f8f8ff;fill-opacity:1;stroke-width:0.26458332"
         id="path3039" />
      <path
         d="m 99.574825,123.19294 q -0.275166,0 -0.465666,-0.1905 -0.179917,-0.1905 -0.179917,-0.46567 0,-0.27516 0.179917,-0.46566 0.1905,-0.1905 0.465666,-0.1905 0.275167,0 0.455085,0.1905 0.1905,0.1905 0.1905,0.46566 0,0.27517 -0.1905,0.46567 -0.179918,0.1905 -0.455085,0.1905 z m 0.476255,8.001 q 0,0.77258 -0.391588,1.13242 -0.391583,0.35983 -1.143,0.35983 h -0.560917 v -0.81492 h 0.402167 q 0.402167,0 0.560917,-0.15875 0.169333,-0.15875 0.169333,-0.53975 v -7.03791 h 0.963088 z"
         style="fill:#f8f8ff;fill-opacity:1;stroke-width:0.26458332"
         id="path3041" />
      <path
         d="m 101.32157,127.01352 q 0,-0.889 0.35984,-1.55575 0.35983,-0.67733 0.98425,-1.04775 0.635,-0.37041 1.40758,-0.37041 0.762,0 1.32292,0.32808 0.56091,0.32808 0.83608,0.8255 v -1.05833 h 0.97367 v 5.79966 h -0.97367 v -1.0795 q -0.28575,0.508 -0.85725,0.84667 -0.56092,0.32808 -1.31233,0.32808 -0.77259,0 -1.397,-0.381 -0.62442,-0.381 -0.98425,-1.06891 -0.35984,-0.68792 -0.35984,-1.56634 z m 4.91067,0.0106 q 0,-0.65617 -0.26458,-1.143 -0.26459,-0.48684 -0.71967,-0.74084 -0.4445,-0.26458 -0.98425,-0.26458 -0.53975,0 -0.98425,0.254 -0.4445,0.254 -0.70908,0.74083 -0.26459,0.48684 -0.26459,1.143 0,0.66675 0.26459,1.16417 0.26458,0.48683 0.70908,0.75142 0.4445,0.254 0.98425,0.254 0.53975,0 0.98425,-0.254 0.45508,-0.26459 0.71967,-0.75142 0.26458,-0.49742 0.26458,-1.15358 z"
         style="fill:#f8f8ff;fill-opacity:1;stroke-width:0.26458332"
         id="path3043" />
      <path
         d="m 111.65918,124.02902 q 1.05833,0 1.7145,0.64559 0.65616,0.635 0.65616,1.8415 v 3.41841 h -0.9525 v -3.28083 q 0,-0.86783 -0.43391,-1.32292 -0.43392,-0.46566 -1.18534,-0.46566 -0.762,0 -1.21708,0.47625 -0.4445,0.47625 -0.4445,1.38641 v 3.20675 h -0.96308 v -5.79966 h 0.96308 v 0.8255 q 0.28575,-0.4445 0.77258,-0.68792 0.49742,-0.24342 1.09009,-0.24342 z"
         style="fill:#f8f8ff;fill-opacity:1;stroke-width:0.26458332"
         id="path3045" />
      <path
         d="m 115.25354,127.01352 q 0,-0.889 0.35983,-1.55575 0.35983,-0.67733 0.98425,-1.04775 0.635,-0.37041 1.40758,-0.37041 0.762,0 1.32292,0.32808 0.56092,0.32808 0.83608,0.8255 v -1.05833 h 0.97367 v 5.79966 h -0.97367 v -1.0795 q -0.28575,0.508 -0.85725,0.84667 -0.56091,0.32808 -1.31233,0.32808 -0.77258,0 -1.397,-0.381 -0.62442,-0.381 -0.98425,-1.06891 -0.35983,-0.68792 -0.35983,-1.56634 z m 4.91066,0.0106 q 0,-0.65617 -0.26458,-1.143 -0.26458,-0.48684 -0.71967,-0.74084 -0.4445,-0.26458 -0.98425,-0.26458 -0.53975,0 -0.98425,0.254 -0.4445,0.254 -0.70908,0.74083 -0.26458,0.48684 -0.26458,1.143 0,0.66675 0.26458,1.16417 0.26458,0.48683 0.70908,0.75142 0.4445,0.254 0.98425,0.254 0.53975,0 0.98425,-0.254 0.45509,-0.26459 0.71967,-0.75142 0.26458,-0.49742 0.26458,-1.15358 z"
         style="fill:#f8f8ff;fill-opacity:1;stroke-width:0.26458332"
         id="path3047" />
      <path
         d="m 126.00389,129.93452 -2.27542,-2.56116 v 2.56116 h -0.96308 v -7.83166 h 0.96308 v 4.60375 l 2.23308,-2.57175 h 1.34409 l -2.7305,2.88925 2.74108,2.91041 z"
         style="fill:#f8f8ff;fill-opacity:1;stroke-width:0.26458332"
         id="path3049" />
      <path
         d="m 127.86258,127.01352 q 0,-0.889 0.35984,-1.55575 0.35983,-0.67733 0.98425,-1.04775 0.635,-0.37041 1.40758,-0.37041 0.762,0 1.32292,0.32808 0.56091,0.32808 0.83608,0.8255 v -1.05833 h 0.97367 v 5.79966 h -0.97367 v -1.0795 q -0.28575,0.508 -0.85725,0.84667 -0.56092,0.32808 -1.31233,0.32808 -0.77259,0 -1.397,-0.381 -0.62442,-0.381 -0.98425,-1.06891 -0.35984,-0.68792 -0.35984,-1.56634 z m 4.91067,0.0106 q 0,-0.65617 -0.26458,-1.143 -0.26459,-0.48684 -0.71967,-0.74084 -0.4445,-0.26458 -0.98425,-0.26458 -0.53975,0 -0.98425,0.254 -0.4445,0.254 -0.70908,0.74083 -0.26459,0.48684 -0.26459,1.143 0,0.66675 0.26459,1.16417 0.26458,0.48683 0.70908,0.75142 0.4445,0.254 0.98425,0.254 0.53975,0 0.98425,-0.254 0.45508,-0.26459 0.71967,-0.75142 0.26458,-0.49742 0.26458,-1.15358 z"
         style="fill:#f8f8ff;fill-opacity:1;stroke-width:0.26458332"
         id="path3051" />
      <path
         d="m 135.68136,129.99802 q -0.27517,0 -0.46567,-0.1905 -0.1905,-0.1905 -0.1905,-0.46566 0,-0.27517 0.1905,-0.46567 0.1905,-0.1905 0.46567,-0.1905 0.26458,0 0.4445,0.1905 0.1905,0.1905 0.1905,0.46567 0,0.27516 -0.1905,0.46566 -0.17992,0.1905 -0.4445,0.1905 z"
         style="fill:#f8f8ff;fill-opacity:1;stroke-width:0.26458332"
         id="path3053" />
      <path
         d="m 137.24703,127.02411 q 0,-0.89959 0.35983,-1.56634 0.35984,-0.67733 0.99484,-1.04775 0.64558,-0.37041 1.47108,-0.37041 1.06892,0 1.75683,0.51858 0.6985,0.51858 0.92075,1.43933 h -1.03716 q -0.14817,-0.52916 -0.58209,-0.83608 -0.42333,-0.30692 -1.05833,-0.30692 -0.8255,0 -1.3335,0.5715 -0.508,0.56092 -0.508,1.59809 0,1.04775 0.508,1.61925 0.508,0.5715 1.3335,0.5715 0.635,0 1.05833,-0.29634 0.42334,-0.29633 0.58209,-0.84666 h 1.03716 q -0.23283,0.889 -0.93133,1.42875 -0.6985,0.52916 -1.74625,0.52916 -0.8255,0 -1.47108,-0.37041 -0.635,-0.37042 -0.99484,-1.04775 -0.35983,-0.67734 -0.35983,-1.5875 z"
         style="fill:#f8f8ff;fill-opacity:1;stroke-width:0.26458332"
         id="path3055" />
      <path
         d="m 146.56482,130.02977 q -0.81491,0 -1.48166,-0.37041 -0.65617,-0.37042 -1.03717,-1.04775 -0.37042,-0.68792 -0.37042,-1.5875 0,-0.889 0.381,-1.56634 0.39159,-0.68791 1.05834,-1.04775 0.66675,-0.37041 1.49225,-0.37041 0.8255,0 1.49225,0.37041 0.66675,0.35984 1.04775,1.03717 0.39158,0.67733 0.39158,1.57692 0,0.89958 -0.40217,1.5875 -0.39158,0.67733 -1.06891,1.04775 -0.67734,0.37041 -1.50284,0.37041 z m 0,-0.84666 q 0.51859,0 0.97367,-0.24342 0.45508,-0.24342 0.73025,-0.73025 0.28575,-0.48683 0.28575,-1.18533 0,-0.6985 -0.27517,-1.18534 -0.27516,-0.48683 -0.71966,-0.71966 -0.4445,-0.24342 -0.96309,-0.24342 -0.52916,0 -0.97366,0.24342 -0.43392,0.23283 -0.6985,0.71966 -0.26459,0.48684 -0.26459,1.18534 0,0.70908 0.254,1.19591 0.26459,0.48684 0.6985,0.73025 0.43392,0.23284 0.9525,0.23284 z"
         style="fill:#f8f8ff;fill-opacity:1;stroke-width:0.26458332"
         id="path3057" />
      <path
         d="m 157.78978,124.02902 q 0.67733,0 1.2065,0.28575 0.52916,0.27517 0.83608,0.83609 0.30692,0.56091 0.30692,1.36525 v 3.41841 h -0.9525 v -3.28083 q 0,-0.86783 -0.43392,-1.32292 -0.42333,-0.46566 -1.15358,-0.46566 -0.75142,0 -1.19592,0.48683 -0.4445,0.47625 -0.4445,1.38642 v 3.19616 h -0.9525 v -3.28083 q 0,-0.86783 -0.43392,-1.32292 -0.42333,-0.46566 -1.15358,-0.46566 -0.75142,0 -1.19592,0.48683 -0.4445,0.47625 -0.4445,1.38642 v 3.19616 h -0.96308 v -5.79966 h 0.96308 v 0.83608 q 0.28575,-0.45508 0.762,-0.6985 0.48684,-0.24342 1.06892,-0.24342 0.73025,0 1.29117,0.32809 0.56091,0.32808 0.83608,0.96308 0.24342,-0.61383 0.80433,-0.9525 0.56092,-0.33867 1.24884,-0.33867 z"
         style="fill:#f8f8ff;fill-opacity:1;stroke-width:0.26458332"
         id="path3059" />
    </g>
  </g>
</svg>
