<?xml version="1.0" encoding="UTF-8" standalone="no"?>
<!-- Created with Inkscape (http://www.inkscape.org/) -->

<svg
   xmlns:dc="http://purl.org/dc/elements/1.1/"
   xmlns:cc="http://creativecommons.org/ns#"
   xmlns:rdf="http://www.w3.org/1999/02/22-rdf-syntax-ns#"
   xmlns:svg="http://www.w3.org/2000/svg"
   xmlns="http://www.w3.org/2000/svg"
   xmlns:sodipodi="http://sodipodi.sourceforge.net/DTD/sodipodi-0.dtd"
   xmlns:inkscape="http://www.inkscape.org/namespaces/inkscape"
   width="13.438452mm"
   height="13.52126mm"
   viewBox="0 0 13.438452 13.52126"
   version="1.1"
   id="svg2612"
   inkscape:version="0.92.4 (5da689c313, 2019-01-14)"
   sodipodi:docname="in.svg">
  <defs
     id="defs2606" />
  <sodipodi:namedview
     id="base"
     pagecolor="#ffffff"
     bordercolor="#666666"
     borderopacity="1.0"
     inkscape:pageopacity="0.0"
     inkscape:pageshadow="2"
     inkscape:zoom="0.7"
     inkscape:cx="75.706671"
     inkscape:cy="65.166286"
     inkscape:document-units="mm"
     inkscape:current-layer="layer1"
     showgrid="false"
     inkscape:window-width="1920"
     inkscape:window-height="1000"
     inkscape:window-x="-11"
     inkscape:window-y="-11"
     inkscape:window-maximized="1" />
  <metadata
     id="metadata2609">
    <rdf:RDF>
      <cc:Work
         rdf:about="">
        <dc:format>image/svg+xml</dc:format>
        <dc:type
           rdf:resource="http://purl.org/dc/dcmitype/StillImage" />
        <dc:title></dc:title>
      </cc:Work>
    </rdf:RDF>
  </metadata>
  <g
     inkscape:label="Layer 1"
     inkscape:groupmode="layer"
     id="layer1"
     transform="translate(17.302559,-198.76913)">
    <path
       id="path4157"
       d="m -16.308787,198.76913 c -0.548479,0 -0.993772,0.43253 -0.993772,0.96742 v 11.58642 c 0,0.53507 0.445293,0.96742 0.993772,0.96742 h 11.4509127 c 0.548455,0 0.993767,-0.43235 0.993767,-0.96742 v -11.58642 c 0,-0.53489 -0.445312,-0.96742 -0.993767,-0.96742 z m 2.077879,2.26986 c 0.694385,0 1.119851,0.45477 1.133038,1.05399 0,0.58603 -0.44028,1.054 -1.148098,1.054 h -0.01127 c -0.681165,0 -1.121749,-0.46797 -1.121749,-1.054 0,-0.59922 0.453779,-1.05399 1.148098,-1.05399 z m 5.985187,2.80061 c 1.3354287,0 2.3338527,0.8722 2.3338527,2.74792 v 3.50078 h -2.0289469 v -3.26739 c 0,-0.82095 -0.2931715,-1.38149 -1.0276469,-1.38149 -0.5607262,0 -0.8959665,0.38066 -1.0427049,0.74532 -0.0536,0.13048 -0.06399,0.31061 -0.06399,0.49312 v 3.41044 h -2.032704 c 0,0 0.02664,-5.53264 0,-6.10565 h 2.032704 v 0.86201 c 0.2698168,-0.41608 0.7531656,-1.00506 1.829435,-1.00506 z m -1.829435,1.00506 c -0.0047,0.007 -0.01048,0.0154 -0.01506,0.0226 h 0.01506 z m -5.183399,-0.86201 h 2.028936 v 6.10565 h -2.028936 z"
       style="fill:#f8f8ff;fill-opacity:1;fill-rule:nonzero;stroke:none;stroke-width:0.26458332"
       inkscape:connector-curvature="0" />
  </g>
</svg>
