<?xml version="1.0" standalone="no"?>
<!DOCTYPE svg PUBLIC "-//W3C//DTD SVG 20010904//EN"
 "http://www.w3.org/TR/2001/REC-SVG-20010904/DTD/svg10.dtd">
<svg version="1.0" xmlns="http://www.w3.org/2000/svg"
 width="700.000000pt" height="700.000000pt" viewBox="0 0 700.000000 700.000000"
 preserveAspectRatio="xMidYMid meet">
<metadata>
Created by potrace 1.11, written by Peter Selinger 2001-2013
</metadata>
<g transform="translate(0.000000,700.000000) scale(0.100000,-0.100000)"
fill="#000000" stroke="none">
<path d="M3035 6195 c0 -443 -2 -806 -5 -806 -3 -1 -682 -3 -1510 -5 -828 -1
-1508 -3 -1513 -3 -4 -1 -6 -198 -5 -438 l3 -438 1513 0 1512 0 0 -57 c0 -72
-24 -262 -51 -398 -99 -505 -290 -974 -576 -1414 -35 -54 -68 -103 -74 -110
-5 -6 -41 -54 -81 -106 -80 -105 -89 -116 -199 -239 -271 -303 -653 -609
-1024 -820 l-90 -51 -3 855 -2 855 -130 0 c-72 0 -240 1 -375 1 -135 0 -285
-1 -335 -1 l-90 0 0 -1510 c0 -831 1 -1510 3 -1510 3 0 106 18 142 25 74 14
371 98 480 135 235 81 342 125 570 236 617 297 1140 702 1566 1213 45 53 89
105 98 116 9 11 51 67 92 125 188 261 291 433 425 710 104 212 114 235 114
248 0 29 18 7 44 -55 83 -196 279 -559 400 -738 70 -105 261 -357 341 -450
125 -147 341 -362 486 -487 82 -70 229 -187 258 -206 14 -9 32 -22 38 -28 44
-42 374 -252 524 -334 200 -109 575 -277 714 -320 22 -7 54 -18 70 -25 45 -19
248 -80 299 -91 10 -2 33 -8 50 -13 31 -10 194 -45 254 -55 l32 -6 0 1510 0
1510 -465 0 -465 0 0 -855 c0 -470 -2 -855 -5 -855 -2 0 -27 13 -55 30 -28 16
-53 30 -55 30 -7 0 -227 140 -310 198 -71 49 -292 217 -305 232 -3 3 -34 31
-70 62 -441 382 -804 893 -1033 1453 -109 269 -210 634 -243 880 -3 22 -7 51
-10 65 -4 25 -15 160 -18 215 l-1 30 1517 0 1518 0 0 438 0 437 -22 1 c-13 0
-696 1 -1518 2 l-1495 2 -1 795 c-1 437 -2 801 -3 808 -1 9 -101 12 -463 12
l-463 0 0 -805z"/>
</g>
</svg>
