<?xml version="1.0" encoding="UTF-8" standalone="no"?>
<!-- Created with Inkscape (http://www.inkscape.org/) -->

<svg
   xmlns:dc="http://purl.org/dc/elements/1.1/"
   xmlns:cc="http://creativecommons.org/ns#"
   xmlns:rdf="http://www.w3.org/1999/02/22-rdf-syntax-ns#"
   xmlns:svg="http://www.w3.org/2000/svg"
   xmlns="http://www.w3.org/2000/svg"
   xmlns:sodipodi="http://sodipodi.sourceforge.net/DTD/sodipodi-0.dtd"
   xmlns:inkscape="http://www.inkscape.org/namespaces/inkscape"
   width="60.002506mm"
   height="7.0377512mm"
   viewBox="0 0 60.002506 7.0377512"
   version="1.1"
   id="svg2487"
   inkscape:version="0.92.4 (5da689c313, 2019-01-14)"
   sodipodi:docname="logotype_2.svg">
  <defs
     id="defs2481" />
  <sodipodi:namedview
     id="base"
     pagecolor="#ffffff"
     bordercolor="#666666"
     borderopacity="1.0"
     inkscape:pageopacity="0.0"
     inkscape:pageshadow="2"
     inkscape:zoom="0.35"
     inkscape:cx="446.2477"
     inkscape:cy="-512.4146"
     inkscape:document-units="mm"
     inkscape:current-layer="layer1"
     showgrid="false"
     inkscape:window-width="1920"
     inkscape:window-height="1000"
     inkscape:window-x="-11"
     inkscape:window-y="-11"
     inkscape:window-maximized="1" />
  <metadata
     id="metadata2484">
    <rdf:RDF>
      <cc:Work
         rdf:about="">
        <dc:format>image/svg+xml</dc:format>
        <dc:type
           rdf:resource="http://purl.org/dc/dcmitype/StillImage" />
        <dc:title></dc:title>
      </cc:Work>
    </rdf:RDF>
  </metadata>
  <g
     inkscape:label="Layer 1"
     inkscape:groupmode="layer"
     id="layer1"
     transform="translate(159.26911,-6.2192198)">
    <path
       inkscape:connector-curvature="0"
       id="path2253"
       style="font-style:normal;font-variant:normal;font-weight:bold;font-stretch:normal;font-size:7.05555534px;line-height:1.25;font-family:Poppins;-inkscape-font-specification:Poppins;letter-spacing:0px;word-spacing:0px;fill:#ffd100;fill-opacity:1;stroke:none;stroke-width:0.26458332"
       d="m -148.99581,8.2545806 -1.7145,3.3161104 v 1.63689 h -1.2065 v -1.63689 l -1.7145,-3.3161104 h 1.36878 l 0.95956,2.0743304 0.9525,-2.0743304 z" />
    <path
       inkscape:connector-curvature="0"
       id="path2255"
       style="font-style:normal;font-variant:normal;font-weight:bold;font-stretch:normal;font-size:7.05555534px;line-height:1.25;font-family:Poppins;-inkscape-font-specification:Poppins;letter-spacing:0px;word-spacing:0px;fill:#ffd100;fill-opacity:1;stroke:none;stroke-width:0.26458332"
       d="m -147.2963,12.276241 h 1.58045 v 0.93134 h -2.78695 V 8.2545806 h 1.2065 z" />
    <path
       inkscape:connector-curvature="0"
       id="path2257"
       style="font-style:normal;font-variant:normal;font-weight:bold;font-stretch:normal;font-size:7.05555534px;line-height:1.25;font-family:Poppins;-inkscape-font-specification:Poppins;letter-spacing:0px;word-spacing:0px;fill:#ffd100;fill-opacity:1;stroke:none;stroke-width:0.26458332"
       d="m -142.79794,13.256971 q -0.6985,0 -1.28411,-0.32456 -0.57856,-0.32456 -0.92428,-0.90311 -0.33867,-0.58561 -0.33867,-1.31233 0,-0.7267304 0.33867,-1.3052802 0.34572,-0.5785601 0.92428,-0.9031102 0.58561,-0.32456 1.28411,-0.32456 0.6985,0 1.27705,0.32456 0.58562,0.3245501 0.91723,0.9031102 0.33866,0.5785498 0.33866,1.3052802 0,0.72672 -0.33866,1.31233 -0.33867,0.57855 -0.91723,0.90311 -0.57855,0.32456 -1.27705,0.32456 z m 0,-1.10067 q 0.59267,0 0.94544,-0.39511 0.35984,-0.39511 0.35984,-1.04422 0,-0.65617 -0.35984,-1.0442304 -0.35277,-0.39511 -0.94544,-0.39511 -0.59972,0 -0.95956,0.3880602 -0.35277,0.3880502 -0.35277,1.0512802 0,0.65616 0.35277,1.05127 0.35984,0.38806 0.95956,0.38806 z" />
    <path
       inkscape:connector-curvature="0"
       id="path2259"
       style="font-style:normal;font-variant:normal;font-weight:bold;font-stretch:normal;font-size:7.05555534px;line-height:1.25;font-family:Poppins;-inkscape-font-specification:Poppins;letter-spacing:0px;word-spacing:0px;fill:#ffd100;fill-opacity:1;stroke:none;stroke-width:0.26458332"
       d="m -135.16978,13.207581 h -1.2065 l -2.01789,-3.05506 v 3.05506 h -1.2065 V 8.2545806 h 1.2065 l 2.01789,3.0691604 V 8.2545806 h 1.2065 z" />
    <path
       inkscape:connector-curvature="0"
       id="path2261"
       style="font-style:normal;font-variant:normal;font-weight:normal;font-stretch:normal;font-size:7.05555534px;line-height:1.25;font-family:Poppins;-inkscape-font-specification:Poppins;letter-spacing:0px;word-spacing:0px;fill:#ff4000;fill-opacity:1;stroke:none;stroke-width:0.26458332"
       d="m -129.23011,8.2545806 v 0.9666102 h -1.31233 v 3.9863902 h -1.2065 V 9.2211908 h -1.31233 V 8.2545806 Z" />
    <path
       inkscape:connector-curvature="0"
       id="path2263"
       style="font-style:normal;font-variant:normal;font-weight:normal;font-stretch:normal;font-size:7.05555534px;line-height:1.25;font-family:Poppins;-inkscape-font-specification:Poppins;letter-spacing:0px;word-spacing:0px;fill:#ff4000;fill-opacity:1;stroke:none;stroke-width:0.26458332"
       d="m -125.51326,8.2545806 v 3.3725504 q 0,0.78317 -0.4445,1.2065 -0.43745,0.42334 -1.18534,0.42334 -0.78316,0 -1.25589,-0.4445 -0.47272,-0.4445 -0.47272,-1.26295 h 1.19945 q 0,0.31045 0.127,0.47272 0.127,0.15523 0.36689,0.15523 0.21872,0 0.33866,-0.14112 0.11995,-0.14111 0.11995,-0.40922 V 8.2545806 Z" />
    <path
       inkscape:connector-curvature="0"
       id="path2265"
       style="font-style:normal;font-variant:normal;font-weight:normal;font-stretch:normal;font-size:7.05555534px;line-height:1.25;font-family:Poppins;-inkscape-font-specification:Poppins;letter-spacing:0px;word-spacing:0px;fill:#ff4000;fill-opacity:1;stroke:none;stroke-width:0.26458332"
       d="m -121.45544,12.332691 h -1.84855 l -0.29634,0.87489 h -1.26294 l 1.79211,-4.9530004 h 1.397 l 1.79211,4.9530004 h -1.27705 z m -0.31044,-0.93134 -0.61384,-1.8132705 -0.60677,1.8132705 z" />
    <path
       inkscape:connector-curvature="0"
       id="path2267"
       style="font-style:normal;font-variant:normal;font-weight:normal;font-stretch:normal;font-size:7.05555534px;line-height:1.25;font-family:Poppins;-inkscape-font-specification:Poppins;letter-spacing:0px;word-spacing:0px;fill:#ff4000;fill-opacity:1;stroke:none;stroke-width:0.26458332"
       d="m -114.91262,13.207581 h -1.2065 l -2.01789,-3.05506 v 3.05506 h -1.2065 V 8.2545806 h 1.2065 l 2.01789,3.0691604 V 8.2545806 h 1.2065 z" />
    <path
       inkscape:connector-curvature="0"
       id="path2269"
       style="font-style:normal;font-variant:normal;font-weight:normal;font-stretch:normal;font-size:7.05555534px;line-height:1.25;font-family:Poppins;-inkscape-font-specification:Poppins;letter-spacing:0px;word-spacing:0px;fill:#ff4000;fill-opacity:1;stroke:none;stroke-width:0.26458332"
       d="m -110.95479,12.332691 h -1.84855 l -0.29634,0.87489 h -1.26294 l 1.79211,-4.9530004 h 1.397 l 1.79211,4.9530004 h -1.27705 z m -0.31044,-0.93134 -0.61383,-1.8132705 -0.60678,1.8132705 z" />
    <path
       inkscape:connector-curvature="0"
       id="path2271"
       style="font-style:normal;font-variant:normal;font-weight:normal;font-stretch:normal;font-size:7.05555534px;line-height:1.25;font-family:Poppins;-inkscape-font-specification:Poppins;letter-spacing:0px;word-spacing:0px;fill:#ff4000;fill-opacity:1;stroke:none;stroke-width:0.26458332"
       d="m -105.97125,13.207581 -1.66511,-2.18723 v 2.18723 h -1.2065 V 8.2545806 h 1.2065 v 2.1731104 l 1.651,-2.1731104 h 1.41817 l -1.91911,2.4271104 1.98966,2.52589 z" />
    <path
       inkscape:connector-curvature="0"
       id="path2273"
       style="font-style:normal;font-variant:normal;font-weight:normal;font-stretch:normal;font-size:7.05555534px;line-height:1.25;font-family:Poppins;-inkscape-font-specification:Poppins;letter-spacing:0px;word-spacing:0px;fill:#ff4000;fill-opacity:1;stroke:none;stroke-width:0.26458332"
       d="m -100.83999,12.332691 h -1.84855 l -0.29634,0.87489 h -1.26294 l 1.79211,-4.9530004 h 1.397 l 1.792108,4.9530004 h -1.277048 z m -0.31044,-0.93134 -0.61384,-1.8132705 -0.60677,1.8132705 z" />
    <path
       inkscape:connector-curvature="0"
       style="fill:#ffd100;fill-opacity:1;stroke:#ffd100;stroke-width:0.264;stroke-linecap:butt;stroke-linejoin:miter;stroke-miterlimit:4;stroke-dasharray:none;stroke-opacity:1"
       d="m -159.13711,6.3512206 v 0.87198 h 3.94093 c 0,0 0.0582,2.8616504 -2.99828,4.3896204 V 9.4185805 h -0.94265 v 2.5863805 1.04796 c 0,0 4.8463,-0.77426 4.88306,-6.7016704 z"
       id="path922-4-9-0-5-7-0-4-5-6-5-9-3-7-2"
       sodipodi:nodetypes="cccccccccc" />
  </g>
</svg>
