<?xml version="1.0" encoding="UTF-8" standalone="no"?>
<svg
   xmlns:dc="http://purl.org/dc/elements/1.1/"
   xmlns:cc="http://creativecommons.org/ns#"
   xmlns:rdf="http://www.w3.org/1999/02/22-rdf-syntax-ns#"
   xmlns:svg="http://www.w3.org/2000/svg"
   xmlns="http://www.w3.org/2000/svg"
   id="svg2863"
   version="1.1"
   viewBox="0 0 60.002491 7.0377498"
   height="7.0377498mm"
   width="60.002491mm">
  <defs
     id="defs2857" />
  <metadata
     id="metadata2860">
    <rdf:RDF>
      <cc:Work
         rdf:about="">
        <dc:format>image/svg+xml</dc:format>
        <dc:type
           rdf:resource="http://purl.org/dc/dcmitype/StillImage" />
        <dc:title></dc:title>
      </cc:Work>
    </rdf:RDF>
  </metadata>
  <g
     transform="translate(150.19767,-102.22517)"
     id="layer1">
    <g
       style="display:inline;opacity:1"
       transform="translate(-362.49612,-81.707987)"
       id="g3612">
      <g
         id="g1132">
        <path
           id="path922-4-9-0-5-7-0-4-5-6-5-9-3-8-8-1"
           d="m 213.5051,189.22623 v -2.22672 h -1.20665 v 2.71941 1.2027 c 0,0 5.14787,-0.68774 5.14787,-6.98846 h -5.14787 v 1.13565 h 3.94224 c 0,0 -0.007,2.6808 -2.73559,4.15742 z"
           style="fill:#ffd100;fill-opacity:1;stroke:none;stroke-width:0.00517605;stroke-linecap:butt;stroke-linejoin:miter;stroke-miterlimit:4;stroke-dasharray:none;stroke-opacity:1" />
        <g
           aria-label="JANAKA"
           style="font-style:normal;font-variant:normal;font-weight:normal;font-stretch:normal;font-size:10.58333302px;line-height:1.25;font-family:Poppins;-inkscape-font-specification:Poppins;letter-spacing:0px;word-spacing:0px;fill:#000000;fill-opacity:1;stroke:none;stroke-width:0.26458332"
           id="text7462-4">
          <path
             d="m 246.05428,185.96852 v 3.37256 q 0,0.78317 -0.4445,1.2065 -0.43745,0.42333 -1.18533,0.42333 -0.78317,0 -1.25589,-0.4445 -0.47273,-0.4445 -0.47273,-1.26294 h 1.19945 q 0,0.31044 0.127,0.47272 0.127,0.15522 0.36689,0.15522 0.21872,0 0.33866,-0.14111 0.11995,-0.14111 0.11995,-0.40922 v -3.37256 z"
             style="font-weight:bold;font-size:7.05555534px;fill:#ff4000;fill-opacity:1;stroke-width:0.26458332"
             id="path3692" />
          <path
             d="m 250.11211,190.04664 h -1.84856 l -0.29633,0.87488 h -1.26295 l 1.79211,-4.953 h 1.397 l 1.79211,4.953 h -1.27705 z m -0.31045,-0.93134 -0.61383,-1.81328 -0.60678,1.81328 z"
             style="font-weight:bold;font-size:7.05555534px;fill:#ff4000;fill-opacity:1;stroke-width:0.26458332"
             id="path3694" />
          <path
             d="m 256.65492,190.92152 h -1.2065 l -2.01789,-3.05505 v 3.05505 h -1.2065 v -4.953 h 1.2065 l 2.01789,3.06917 v -3.06917 h 1.2065 z"
             style="font-weight:bold;font-size:7.05555534px;fill:#ff4000;fill-opacity:1;stroke-width:0.26458332"
             id="path3696" />
          <path
             d="m 260.61276,190.04664 h -1.84856 l -0.29633,0.87488 h -1.26295 l 1.79211,-4.953 h 1.397 l 1.79211,4.953 h -1.27705 z m -0.31045,-0.93134 -0.61383,-1.81328 -0.60678,1.81328 z"
             style="font-weight:bold;font-size:7.05555534px;fill:#ff4000;fill-opacity:1;stroke-width:0.26458332"
             id="path3698" />
          <path
             d="m 265.59629,190.92152 -1.66511,-2.18722 v 2.18722 h -1.2065 v -4.953 h 1.2065 v 2.17312 l 1.651,-2.17312 h 1.41817 l -1.91911,2.42712 1.98966,2.52588 z"
             style="font-weight:bold;font-size:7.05555534px;fill:#ff4000;fill-opacity:1;stroke-width:0.26458332"
             id="path3700" />
          <path
             d="M 270.72756,190.04664 H 268.879 l -0.29633,0.87488 h -1.26295 l 1.79211,-4.953 h 1.397 l 1.79211,4.953 h -1.27705 z m -0.31045,-0.93134 -0.61383,-1.81328 -0.60678,1.81328 z"
             style="font-weight:bold;font-size:7.05555534px;fill:#ff4000;fill-opacity:1;stroke-width:0.26458332"
             id="path3702" />
        </g>
        <path
           d="m 222.57174,185.96852 -1.7145,3.31611 v 1.63689 h -1.2065 v -1.63689 l -1.7145,-3.31611 h 1.36878 l 0.95956,2.07433 0.9525,-2.07433 z"
           style="font-style:normal;font-variant:normal;font-weight:bold;font-stretch:normal;font-size:7.05555534px;line-height:1.25;font-family:Poppins;-inkscape-font-specification:Poppins;letter-spacing:0px;word-spacing:0px;fill:#ffd100;fill-opacity:1;stroke:none;stroke-width:0.26458332"
           id="path2253-7" />
        <path
           d="m 224.27125,189.99018 h 1.58045 v 0.93134 h -2.78695 v -4.953 h 1.2065 z"
           style="font-style:normal;font-variant:normal;font-weight:bold;font-stretch:normal;font-size:7.05555534px;line-height:1.25;font-family:Poppins;-inkscape-font-specification:Poppins;letter-spacing:0px;word-spacing:0px;fill:#ffd100;fill-opacity:1;stroke:none;stroke-width:0.26458332"
           id="path2255-34" />
        <path
           d="m 228.76961,190.97091 q -0.6985,0 -1.28411,-0.32456 -0.57856,-0.32456 -0.92428,-0.90311 -0.33867,-0.58561 -0.33867,-1.31233 0,-0.72673 0.33867,-1.30528 0.34572,-0.57856 0.92428,-0.90311 0.58561,-0.32456 1.28411,-0.32456 0.6985,0 1.27705,0.32456 0.58562,0.32455 0.91723,0.90311 0.33866,0.57855 0.33866,1.30528 0,0.72672 -0.33866,1.31233 -0.33867,0.57855 -0.91723,0.90311 -0.57855,0.32456 -1.27705,0.32456 z m 0,-1.10067 q 0.59267,0 0.94544,-0.39511 0.35984,-0.39511 0.35984,-1.04422 0,-0.65617 -0.35984,-1.04423 -0.35277,-0.39511 -0.94544,-0.39511 -0.59972,0 -0.95956,0.38806 -0.35277,0.38805 -0.35277,1.05128 0,0.65616 0.35277,1.05127 0.35984,0.38806 0.95956,0.38806 z"
           style="font-style:normal;font-variant:normal;font-weight:bold;font-stretch:normal;font-size:7.05555534px;line-height:1.25;font-family:Poppins;-inkscape-font-specification:Poppins;letter-spacing:0px;word-spacing:0px;fill:#ffd100;fill-opacity:1;stroke:none;stroke-width:0.26458332"
           id="path2257-0" />
        <path
           d="m 236.39777,190.92152 h -1.2065 l -2.01789,-3.05506 v 3.05506 h -1.2065 v -4.953 h 1.2065 l 2.01789,3.06916 v -3.06916 h 1.2065 z"
           style="font-style:normal;font-variant:normal;font-weight:bold;font-stretch:normal;font-size:7.05555534px;line-height:1.25;font-family:Poppins;-inkscape-font-specification:Poppins;letter-spacing:0px;word-spacing:0px;fill:#ffd100;fill-opacity:1;stroke:none;stroke-width:0.26458332"
           id="path2259-4" />
        <path
           d="m 242.33744,185.96852 v 0.96661 h -1.31233 v 3.98639 h -1.2065 v -3.98639 h -1.31233 v -0.96661 z"
           style="font-style:normal;font-variant:normal;font-weight:normal;font-stretch:normal;font-size:7.05555534px;line-height:1.25;font-family:Poppins;-inkscape-font-specification:Poppins;letter-spacing:0px;word-spacing:0px;fill:#ff4000;fill-opacity:1;stroke:none;stroke-width:0.26458332"
           id="path2261-7" />
      </g>
    </g>
  </g>
</svg>
