<?xml version="1.0" standalone="no"?>
<!DOCTYPE svg PUBLIC "-//W3C//DTD SVG 20010904//EN"
 "http://www.w3.org/TR/2001/REC-SVG-20010904/DTD/svg10.dtd">
<svg version="1.0" xmlns="http://www.w3.org/2000/svg"
 width="564.000000pt" height="564.000000pt" viewBox="0 0 564.000000 564.000000"
 preserveAspectRatio="xMidYMid meet">
<metadata>
Created by potrace 1.16, written by Peter Selinger 2001-2019
</metadata>
<g transform="translate(0.000000,564.000000) scale(0.100000,-0.100000)"
fill="#0ccf75" stroke="none">
<path d="M2607 5629 c-557 -40 -1109 -257 -1557 -615 -117 -94 -351 -330 -440
-444 -325 -420 -515 -873 -586 -1400 -21 -154 -24 -498 -6 -655 63 -540 274
-1047 608 -1465 96 -120 310 -332 434 -430 630 -500 1431 -709 2220 -579 473
78 931 283 1310 585 108 86 335 313 424 424 332 415 540 912 607 1455 16 128
16 489 0 625 -61 523 -252 994 -580 1425 -97 129 -357 389 -486 486 -578 440
-1239 639 -1948 588z m2040 -1659 l131 -135 -35 -40 c-20 -22 -115 -121 -212
-220 -97 -99 -320 -328 -496 -510 -176 -181 -396 -409 -490 -505 -343 -352
-509 -523 -855 -880 -195 -201 -393 -405 -440 -453 l-85 -88 -120 123 c-65 68
-191 197 -280 288 -546 562 -808 832 -852 880 l-51 54 321 328 c177 180 324
328 327 328 6 0 438 -442 580 -592 34 -38 69 -68 75 -68 7 0 34 24 60 53 42
46 316 328 850 877 94 96 249 256 345 355 96 99 254 261 350 360 97 99 218
223 269 277 l93 96 192 -196 c106 -109 251 -258 323 -332z"/>
</g>
</svg>
