<?xml version="1.0" standalone="no"?>
<!DOCTYPE svg PUBLIC "-//W3C//DTD SVG 20010904//EN"
 "http://www.w3.org/TR/2001/REC-SVG-20010904/DTD/svg10.dtd">
<svg version="1.0" xmlns="http://www.w3.org/2000/svg"
 width="192.000000pt" height="192.000000pt" viewBox="0 0 192.000000 192.000000"
 preserveAspectRatio="xMidYMid meet">
<metadata>
Created by potrace 1.16, written by Peter Selinger 2001-2019
</metadata>
<g transform="translate(0.000000,192.000000) scale(0.100000,-0.100000)"
fill="#ffffff" stroke="none">
<path d="M1290 1595 l-85 -85 153 -152 152 -153 85 85 c79 78 85 88 85 125 0
38 -6 47 -113 153 -106 105 -115 112 -152 112 -37 0 -47 -7 -125 -85z"/>
<path d="M682 987 l-442 -442 0 -153 0 -152 153 0 152 0 443 443 442 442 -153
153 -152 152 -443 -443z"/>
</g>
</svg>
