<?xml version="1.0" standalone="no"?>
<!DOCTYPE svg PUBLIC "-//W3C//DTD SVG 20010904//EN"
 "http://www.w3.org/TR/2001/REC-SVG-20010904/DTD/svg10.dtd">
<svg version="1.0" xmlns="http://www.w3.org/2000/svg"
 width="2000.000000pt" height="2000.000000pt" viewBox="0 0 2000.000000 2000.000000"
 preserveAspectRatio="xMidYMid meet">
<metadata>
Created by potrace 1.16, written by Peter Selinger 2001-2019
</metadata>
<g transform="translate(0.000000,2000.000000) scale(0.100000,-0.100000)"
fill="#d00000" stroke="none">
<path d="M9495 19994 c-33 -2 -154 -11 -270 -20 -3063 -230 -5849 -1867 -7564
-4444 -868 -1304 -1411 -2783 -1596 -4345 -53 -455 -60 -580 -60 -1185 0 -605
7 -730 60 -1185 322 -2720 1739 -5175 3940 -6825 1425 -1068 3085 -1729 4850
-1930 365 -41 547 -52 1001 -57 580 -7 923 11 1414 73 2846 359 5406 1936
7022 4324 895 1322 1455 2827 1643 4415 53 454 60 580 60 1185 0 605 -7 731
-60 1185 -188 1589 -746 3090 -1643 4415 -1143 1690 -2781 2997 -4677 3732
-773 300 -1597 504 -2430 603 -423 49 -561 57 -1110 60 -286 1 -547 1 -580 -1z
m2583 -5861 l2077 2077 1103 -1102 1102 -1103 -2077 -2077 -2078 -2078 2078
-2078 2077 -2077 -1098 -1098 c-603 -603 -1102 -1097 -1107 -1097 -5 0 -943
933 -2082 2072 l-2073 2073 -2073 -2073 c-1139 -1139 -2077 -2072 -2082 -2072
-5 0 -504 494 -1107 1097 l-1098 1098 2077 2077 2078 2078 -2078 2078 -2077
2077 1102 1103 1103 1102 2077 -2077 2078 -2078 2078 2078z"/>
</g>
</svg>
