{
    "asset" : {
        "generator" : "Khronos glTF Blender I/O v1.4.40",
        "version" : "2.0"
    },
    "scene" : 0,
    "scenes" : [
        {
            "name" : "Scene",
            "nodes" : [
                0,
                1,
                2
            ]
        }
    ],
    "nodes" : [
        {
            "name" : "Light",
            "rotation" : [
                0.16907575726509094,
                0.7558803558349609,
                -0.27217137813568115,
                0.570947527885437
            ],
            "translation" : [
                4.076245307922363,
                5.903861999511719,
                -1.0054539442062378
            ]
        },
        {
            "name" : "Camera",
            "rotation" : [
                0.483536034822464,
                0.33687159419059753,
                -0.20870360732078552,
                0.7804827094078064
            ],
            "translation" : [
                7.358891487121582,
                4.958309173583984,
                6.925790786743164
            ]
        },
        {
            "mesh" : 0,
            "name" : "276-6498-000 Rev9 Official Set Up"
        }
    ],
    "meshes" : [
        {
            "name" : "276-6498-000 Rev9 Official Set Up",
            "primitives" : [
                {
                    "attributes" : {
                        "POSITION" : 0,
                        "NORMAL" : 1
                    },
                    "indices" : 2
                }
            ]
        }
    ],
    "accessors" : [
        {
            "bufferView" : 0,
            "componentType" : 5126,
            "count" : 11381,
            "max" : [
                309.5626220703125,
                309.56304931640625,
                7.937500476837158
            ],
            "min" : [
                -309.5623779296875,
                -309.56195068359375,
                -7.937499523162842
            ],
            "type" : "VEC3"
        },
        {
            "bufferView" : 1,
            "componentType" : 5126,
            "count" : 11381,
            "type" : "VEC3"
        },
        {
            "bufferView" : 2,
            "componentType" : 5123,
            "count" : 14052,
            "type" : "SCALAR"
        }
    ],
    "bufferViews" : [
        {
            "buffer" : 0,
            "byteLength" : 136572,
            "byteOffset" : 0
        },
        {
            "buffer" : 0,
            "byteLength" : 136572,
            "byteOffset" : 136572
        },
        {
            "buffer" : 0,
            "byteLength" : 28104,
            "byteOffset" : 273144
        }
    ],
    "buffers" : [
        {
            "byteLength" : 301248,
            "uri" : "data:application/octet-stream;base64,"
        }
    ]
}
