<?xml version="1.0" standalone="no"?>
<!DOCTYPE svg PUBLIC "-//W3C//DTD SVG 20010904//EN"
 "http://www.w3.org/TR/2001/REC-SVG-20010904/DTD/svg10.dtd">
<svg version="1.0" xmlns="http://www.w3.org/2000/svg"
 width="256.000000pt" height="256.000000pt" viewBox="0 0 256.000000 256.000000"
 preserveAspectRatio="xMidYMid meet">
<metadata>
Created by potrace 1.16, written by Peter Selinger 2001-2019
</metadata>
<g transform="translate(0.000000,256.000000) scale(0.100000,-0.100000)"
fill="#ffffff" stroke="none">
<path d="M935 2541 c-90 -41 -139 -111 -151 -216 l-7 -55 -209 0 -210 0 -34
-34 c-19 -19 -34 -41 -34 -50 0 -13 -11 -16 -50 -16 l-50 0 0 -105 0 -105
1090 0 1090 0 0 105 0 105 -50 0 c-39 0 -50 3 -50 16 0 9 -15 31 -34 50 l-34
34 -210 0 -209 0 -7 55 c-12 105 -61 175 -151 216 -36 17 -71 19 -345 19 -274
0 -309 -2 -345 -19z m612 -203 c6 -7 13 -25 17 -40 l6 -28 -290 0 -290 0 6 28
c13 53 8 52 284 52 194 0 260 -3 267 -12z"/>
<path d="M390 1060 c0 -780 1 -822 19 -870 28 -74 73 -125 143 -159 l61 -31
667 0 667 0 61 31 c70 34 115 85 143 159 18 48 19 90 19 870 l0 820 -890 0
-890 0 0 -820z m590 -75 l0 -585 -95 0 -95 0 0 585 0 585 95 0 95 0 0 -585z
m390 0 l0 -585 -90 0 -90 0 0 585 0 585 90 0 90 0 0 -585z m400 0 l0 -585 -95
0 -95 0 0 585 0 585 95 0 95 0 0 -585z"/>
</g>
</svg>
