<?xml version="1.0" standalone="no"?>
<!DOCTYPE svg PUBLIC "-//W3C//DTD SVG 20010904//EN"
 "http://www.w3.org/TR/2001/REC-SVG-20010904/DTD/svg10.dtd">
<svg version="1.0" xmlns="http://www.w3.org/2000/svg"
 width="700.000000pt" height="700.000000pt" viewBox="0 0 700.000000 700.000000"
 preserveAspectRatio="xMidYMid meet">
<metadata>
Created by potrace 1.11, written by Peter Selinger 2001-2013
</metadata>
<g transform="translate(0.000000,700.000000) scale(0.100000,-0.100000)"
fill="#000000" stroke="none">
<path d="M3037 6993 c-2 -5 -3 -367 -3 -806 1 -702 -1 -798 -14 -801 -8 -3
-690 -4 -1515 -4 l-1500 1 -3 -436 -2 -437 27 -1 c16 0 698 0 1516 -1 l1488 0
-7 -76 c-3 -41 -7 -83 -9 -91 -2 -9 -6 -43 -10 -76 -5 -52 -55 -306 -70 -357
-3 -10 -7 -28 -10 -40 -16 -75 -117 -384 -145 -443 -5 -11 -21 -49 -35 -85
-80 -197 -237 -480 -381 -686 -214 -308 -539 -645 -849 -882 -125 -95 -377
-260 -508 -331 l-77 -43 0 811 0 811 -465 0 -465 0 0 -1510 0 -1510 22 4 c13
3 57 10 98 17 41 6 100 18 130 26 30 8 71 18 90 23 272 61 797 275 1100 448
161 92 368 223 470 299 118 87 292 225 340 269 19 17 62 56 94 85 327 296 643
689 876 1089 69 119 250 480 265 528 10 33 18 27 39 -26 48 -119 194 -405 287
-559 380 -633 910 -1170 1544 -1565 481 -300 1097 -548 1535 -619 36 -5 74
-12 86 -14 l20 -4 2 1509 2 1510 -465 0 -465 0 0 -810 c0 -445 -2 -810 -5
-810 -2 0 -43 23 -91 50 -48 28 -88 50 -90 50 -11 0 -289 188 -389 264 -76 57
-251 201 -286 235 -262 252 -355 354 -509 561 -211 283 -378 590 -505 925 -14
39 -30 80 -35 93 -30 70 -118 398 -139 517 -6 33 -13 71 -16 85 -3 14 -8 45
-11 70 -3 25 -7 56 -10 70 -2 14 -7 62 -10 106 l-6 82 1513 0 1514 -1 1 437 1
436 -31 1 c-17 0 -699 1 -1516 2 l-1485 2 0 805 -1 805 -461 3 c-254 1 -463
-1 -466 -5z"/>
</g>
</svg>
